{"title":"Rise Of The Planet Of The Apes 2011 DVDRip Stumpie1971","uid":6824401,"size":1680379704,"categoryP":"video","categoryS":"movies","magnet":"?xt=urn:btih:dabc4d553f46ede74ee86746025564add10dbbab&amp;dn=Rise+Of+The+Planet+Of+The+Apes+2011+DVDRip+Stumpie1971&amp;tr=udp%3A%2F%2Ftracker.openbittorrent.com%3A80&amp;tr=udp%3A%2F%2Fopen.demonii.com%3A1337&amp;tr=udp%3A%2F%2Ftracker.coppersurfer.tk%3A6969&amp;tr=udp%3A%2F%2Fexodus.desync.com%3A6969","seeders":0,"leechers":0,"uploader":"stumpie1971","files":-1,"time":1321521893,"description":" &lt;a href=&quot; http://www.hotimg.com/direct/X6WNVQU.jpg&quot; rel=&quot;nofollow&quot; target=&quot;_NEW&quot;&gt; http://www.hotimg.com/direct/X6WNVQU.jpg&lt;/a&gt;\n\nScreens:\n  &lt;a href=&quot;\nhttp://www.hotimg.com/direct/QSWutw8.jpg&quot; rel=&quot;nofollow&quot; target=&quot;_NEW&quot;&gt;\nhttp://www.hotimg.com/direct/QSWutw8.jpg&lt;/a&gt;\n  &lt;a href=&quot;\nhttp://www.hotimg.com/direct/AbsJw6M.jpg&quot; rel=&quot;nofollow&quot; target=&quot;_NEW&quot;&gt;\nhttp://www.hotimg.com/direct/AbsJw6M.jpg&lt;/a&gt;\n  &lt;a href=&quot;\nhttp://www.hotimg.com/direct/eY49gdx.jpg&quot; rel=&quot;nofollow&quot; target=&quot;_NEW&quot;&gt;\nhttp://www.hotimg.com/direct/eY49gdx.jpg&lt;/a&gt;\n  &lt;a href=&quot;\nhttp://www.hotimg.com/direct/Nyczuxp.jpg&quot; rel=&quot;nofollow&quot; target=&quot;_NEW&quot;&gt;\nhttp://www.hotimg.com/direct/Nyczuxp.jpg&lt;/a&gt;\n\nAlternative:\n  &lt;a href=&quot;\nhttp://www.postimg.com/image/52000/photo-51304.jpg&quot; rel=&quot;nofollow&quot; target=&quot;_NEW&quot;&gt;\nhttp://www.postimg.com/image/52000/photo-51304.jpg&lt;/a&gt;\n  &lt;a href=&quot;\nhttp://www.postimg.com/image/52000/photo-51305.jpg&quot; rel=&quot;nofollow&quot; target=&quot;_NEW&quot;&gt;\nhttp://www.postimg.com/image/52000/photo-51305.jpg&lt;/a&gt;\n  &lt;a href=&quot;\nhttp://www.postimg.com/image/52000/photo-51306.jpg&quot; rel=&quot;nofollow&quot; target=&quot;_NEW&quot;&gt;\nhttp://www.postimg.com/image/52000/photo-51306.jpg&lt;/a&gt;\n  &lt;a href=&quot;\nhttp://www.postimg.com/image/52000/photo-51307.jpg&quot; rel=&quot;nofollow&quot; target=&quot;_NEW&quot;&gt;\nhttp://www.postimg.com/image/52000/photo-51307.jpg&lt;/a&gt;\n\nScreenCaps:\n  &lt;a href=&quot;\nhttp://www.postimg.com/image/52000/photo-51310.jpg&quot; rel=&quot;nofollow&quot; target=&quot;_NEW&quot;&gt;\nhttp://www.postimg.com/image/52000/photo-51310.jpg&lt;/a&gt;\n\nRise of the Planet of the Apes (2011) DVDRip XviD-MAX\nFormat                           : AVI\nFormat/Info                      : Audio Video Interleave\nFormat profile                   : OpenDML\nFile size                        : 1.55 GiB\nDuration                         : 1h 44mn\nOverall bit rate                 : 2 121 Kbps\nWriting application              : VirtualDubMod 1.5.10.2 (build 2542/release)\nWriting library                  : VirtualDubMod build 2542/release\nOriginal source form             : MAX TORRENTZ\nCopyright                        : SIGISMUNT\n\nVideo\nID                               : 0\nFormat                           : MPEG-4 Visual\nFormat profile                   : AdvancedSimple@L5\nFormat settings, BVOP            : Yes\nFormat settings, QPel            : No\nFormat settings, GMC             : No warppoints\nFormat settings, Matrix          : Custom\nCodec ID                         : XVID\nCodec ID/Hint                    : XviD\nDuration                         : 1h 44mn\nBit rate                         : 1 732 Kbps\nWidth                            : 720 pixels\nHeight                           : 304 pixels\nDisplay aspect ratio             : 2.35:1\nFrame rate                       : 23.976 fps\nResolution                       : 24 bits\nColorimetry                      : 4:2:0\nScan type                        : Progressive\nBits/(Pixel*Frame)               : 0.330\nStream size                      : 1.27 GiB (82%)\nWriting library                  : XviD 58\n\nAudio\nID                               : 1\nFormat                           : AC-3\nFormat/Info                      : Audio Coding 3\nCodec ID                         : 2000\nDuration                         : 1h 44mn\nBit rate mode                    : Constant\nBit rate                         : 384 Kbps\nChannel(s)                       : 6 channels\nChannel positions                : Front: L C R, Surround: L R, LFE\nSampling rate                    : 48.0 KHz\nStream size                      : 288 MiB (18%)\nAlignment                        : Aligned on interleaves\nInterleave, duration             : 64 ms (1.53 video frames)\nInterleave, preload duration     : 192 ms\n\nSource: DVD (perfect a/v/sync quality,sample included)\nThis torrent is not seedbox supported,please seed it to the MAX\n  &lt;a href=&quot;\nhttp://www.imdb.com/title/tt1318514/&quot; rel=&quot;nofollow&quot; target=&quot;_NEW&quot;&gt;\nhttp://www.imdb.com/title/tt1318514/&lt;/a&gt;\n\nNote:If you have something to offer as early releases,seedboxes,links,accounts,etc\nplease contact us on piratepedia[@]msn/gmail.com or our website torentz 3xforum ro\n\nRise of the Planet of the Apes (2011) DVDRip XviD-MAX Torrent Free Download\n ","torrent":{"xt":"urn:btih:dabc4d553f46ede74ee86746025564add10dbbab","amp;dn":"Rise+Of+The+Planet+Of+The+Apes+2011+DVDRip+Stumpie1971","amp;tr":["udp%3A%2F%2Ftracker.openbittorrent.com%3A80","udp%3A%2F%2Fopen.demonii.com%3A1337","udp%3A%2F%2Ftracker.coppersurfer.tk%3A6969","udp%3A%2F%2Fexodus.desync.com%3A6969"],"infoHash":"dabc4d553f46ede74ee86746025564add10dbbab","infoHashBuffer":{"type":"Buffer","data":[218,188,77,85,63,70,237,231,78,232,103,70,2,85,100,173,209,13,187,171]},"announce":[],"urlList":[]}}